<mxfile host="Electron" modified="2023-12-16T14:03:48.264Z" agent="Mozilla/5.0 (Macintosh; Intel Mac OS X 10_15_7) AppleWebKit/537.36 (KHTML, like Gecko) draw.io/22.1.2 Chrome/114.0.5735.289 Electron/25.9.4 Safari/537.36" etag="po5mP9NfSmV0PAXwoEYW" version="22.1.2" type="device" pages="13">
  <diagram name="安裝流程" id="L6pvO6ugkf3Df70bWKK2">
    <mxGraphModel dx="2074" dy="1267" grid="1" gridSize="10" guides="1" tooltips="1" connect="1" arrows="1" fold="1" page="1" pageScale="1" pageWidth="827" pageHeight="1169" math="0" shadow="0">
      <root>
        <mxCell id="0" />
        <mxCell id="1" parent="0" />
        <mxCell id="P11Sd5dZOWfhtsSW1osL-1" style="edgeStyle=orthogonalEdgeStyle;rounded=0;html=1;exitX=1;exitY=0.5;startArrow=none;startFill=0;endArrow=classic;endFill=1;jettySize=auto;orthogonalLoop=1;strokeColor=#000000;strokeWidth=3;fontSize=22;fontColor=#000000;" edge="1" parent="1" source="P11Sd5dZOWfhtsSW1osL-2" target="P11Sd5dZOWfhtsSW1osL-4">
          <mxGeometry relative="1" as="geometry" />
        </mxCell>
        <mxCell id="P11Sd5dZOWfhtsSW1osL-2" value="安裝 Go" style="rounded=0;whiteSpace=wrap;html=1;shadow=0;labelBackgroundColor=none;strokeColor=#080808;strokeWidth=2;fillColor=#ffffff;fontSize=22;fontColor=#000000;align=center;" vertex="1" parent="1">
          <mxGeometry x="223" y="210" width="120" height="60" as="geometry" />
        </mxCell>
        <mxCell id="P11Sd5dZOWfhtsSW1osL-3" style="edgeStyle=orthogonalEdgeStyle;rounded=0;html=1;exitX=1;exitY=0.5;startArrow=none;startFill=0;endArrow=classic;endFill=1;jettySize=auto;orthogonalLoop=1;strokeColor=#000000;strokeWidth=3;fontSize=22;fontColor=#000000;" edge="1" parent="1" source="P11Sd5dZOWfhtsSW1osL-4" target="P11Sd5dZOWfhtsSW1osL-5">
          <mxGeometry relative="1" as="geometry" />
        </mxCell>
        <mxCell id="P11Sd5dZOWfhtsSW1osL-4" value="安裝 VSCode" style="rounded=0;whiteSpace=wrap;html=1;shadow=0;labelBackgroundColor=none;strokeColor=#080808;strokeWidth=2;fillColor=#ffffff;fontSize=22;fontColor=#000000;align=center;" vertex="1" parent="1">
          <mxGeometry x="389" y="210" width="120" height="60" as="geometry" />
        </mxCell>
        <mxCell id="P11Sd5dZOWfhtsSW1osL-5" value="VSCode&lt;br&gt;套件" style="rounded=0;whiteSpace=wrap;html=1;shadow=0;labelBackgroundColor=none;strokeColor=#080808;strokeWidth=2;fillColor=#ffffff;fontSize=22;fontColor=#000000;align=center;" vertex="1" parent="1">
          <mxGeometry x="564" y="210" width="130" height="60" as="geometry" />
        </mxCell>
        <mxCell id="P11Sd5dZOWfhtsSW1osL-6" value="https://golang.org/dl/" style="text;html=1;strokeColor=none;fillColor=none;align=center;verticalAlign=middle;whiteSpace=wrap;rounded=0;shadow=0;labelBackgroundColor=none;fontSize=12;fontColor=#000000;" vertex="1" parent="1">
          <mxGeometry x="221" y="180" width="125" height="30" as="geometry" />
        </mxCell>
        <mxCell id="P11Sd5dZOWfhtsSW1osL-7" value="https://code.visualstudio.com/" style="text;html=1;strokeColor=none;fillColor=none;align=center;verticalAlign=middle;whiteSpace=wrap;rounded=0;shadow=0;labelBackgroundColor=none;fontSize=12;fontColor=#000000;" vertex="1" parent="1">
          <mxGeometry x="387" y="180" width="125" height="30" as="geometry" />
        </mxCell>
        <mxCell id="P11Sd5dZOWfhtsSW1osL-8" style="edgeStyle=orthogonalEdgeStyle;rounded=0;html=1;exitX=1;exitY=0.5;startArrow=none;startFill=0;endArrow=classic;endFill=1;jettySize=auto;orthogonalLoop=1;strokeColor=#000000;strokeWidth=3;fontSize=22;fontColor=#000000;" edge="1" parent="1" target="P11Sd5dZOWfhtsSW1osL-9">
          <mxGeometry relative="1" as="geometry">
            <mxPoint x="694.3333333333333" y="240.33333333333337" as="sourcePoint" />
          </mxGeometry>
        </mxCell>
        <mxCell id="P11Sd5dZOWfhtsSW1osL-9" value="開始寫程式!" style="rounded=0;whiteSpace=wrap;html=1;shadow=0;labelBackgroundColor=none;strokeColor=#080808;strokeWidth=2;fillColor=#ffffff;fontSize=22;fontColor=#000000;align=center;" vertex="1" parent="1">
          <mxGeometry x="749" y="210" width="130" height="60" as="geometry" />
        </mxCell>
        <mxCell id="P11Sd5dZOWfhtsSW1osL-10" value="The fun part!" style="text;html=1;strokeColor=none;fillColor=none;align=center;verticalAlign=middle;whiteSpace=wrap;rounded=0;shadow=0;labelBackgroundColor=none;fontSize=16;fontColor=#000000;" vertex="1" parent="1">
          <mxGeometry x="752" y="280" width="125" height="20" as="geometry" />
        </mxCell>
      </root>
    </mxGraphModel>
  </diagram>
  <diagram name="撰寫格式" id="70jOTGvDIWTGCHEZ6uod">
    <mxGraphModel dx="2074" dy="1267" grid="1" gridSize="10" guides="1" tooltips="1" connect="1" arrows="1" fold="1" page="1" pageScale="1" pageWidth="1100" pageHeight="850" background="#ffffff" math="0" shadow="0">
      <root>
        <mxCell id="0" />
        <mxCell id="1" parent="0" />
        <mxCell id="11" value="" style="rounded=0;whiteSpace=wrap;html=1;shadow=0;labelBackgroundColor=none;strokeColor=#9673a6;strokeWidth=2;fillColor=#e1d5e7;fontSize=32;fontColor=#000000;align=left;" parent="1" vertex="1">
          <mxGeometry x="665" y="340" width="180" height="170" as="geometry" />
        </mxCell>
        <mxCell id="10" value="" style="rounded=0;whiteSpace=wrap;html=1;shadow=0;labelBackgroundColor=none;strokeColor=#82b366;strokeWidth=2;fillColor=#d5e8d4;fontSize=32;fontColor=#000000;align=left;" parent="1" vertex="1">
          <mxGeometry x="665" y="210" width="180" height="130" as="geometry" />
        </mxCell>
        <mxCell id="9" value="" style="rounded=0;whiteSpace=wrap;html=1;shadow=0;labelBackgroundColor=none;strokeColor=#6c8ebf;strokeWidth=2;fillColor=#dae8fc;fontSize=32;fontColor=#000000;align=left;" parent="1" vertex="1">
          <mxGeometry x="665" y="120" width="180" height="90" as="geometry" />
        </mxCell>
        <mxCell id="5" value="" style="rounded=0;whiteSpace=wrap;html=1;shadow=0;labelBackgroundColor=none;strokeColor=#9673a6;strokeWidth=2;fillColor=#e1d5e7;fontSize=32;fontColor=#000000;align=left;" parent="1" vertex="1">
          <mxGeometry x="255" y="340" width="410" height="170" as="geometry" />
        </mxCell>
        <mxCell id="4" value="" style="rounded=0;whiteSpace=wrap;html=1;shadow=0;labelBackgroundColor=none;strokeColor=#82b366;strokeWidth=2;fillColor=#d5e8d4;fontSize=32;fontColor=#000000;align=left;" parent="1" vertex="1">
          <mxGeometry x="255" y="210" width="410" height="130" as="geometry" />
        </mxCell>
        <mxCell id="3" value="" style="rounded=0;whiteSpace=wrap;html=1;shadow=0;labelBackgroundColor=none;strokeColor=#6c8ebf;strokeWidth=2;fillColor=#dae8fc;fontSize=32;fontColor=#000000;align=left;" parent="1" vertex="1">
          <mxGeometry x="255" y="120" width="410" height="90" as="geometry" />
        </mxCell>
        <mxCell id="2" value="&lt;div&gt;package main&lt;/div&gt;&lt;div&gt;&lt;br&gt;&lt;/div&gt;&lt;div&gt;&lt;br&gt;&lt;/div&gt;&lt;div&gt;import &quot;fmt&quot;&lt;/div&gt;&lt;div&gt;&lt;br&gt;&lt;/div&gt;&lt;div&gt;&lt;br&gt;&lt;/div&gt;&lt;div&gt;func main() {&lt;/div&gt;&lt;div&gt;&amp;nbsp; fmt.Println(&quot;Hello World&quot;)&lt;/div&gt;&lt;div&gt;}&lt;/div&gt;" style="text;html=1;strokeColor=none;fillColor=none;align=left;verticalAlign=middle;whiteSpace=wrap;rounded=0;shadow=0;labelBackgroundColor=none;fontSize=32;fontColor=#000000;" parent="1" vertex="1">
          <mxGeometry x="273" y="131" width="374" height="370" as="geometry" />
        </mxCell>
        <mxCell id="6" value="&lt;span style=&quot;font-size: 20px;&quot;&gt;宣告Package 名稱&lt;/span&gt;" style="text;html=1;strokeColor=none;fillColor=none;align=left;verticalAlign=middle;whiteSpace=wrap;rounded=0;shadow=0;labelBackgroundColor=none;fontSize=20;fontColor=#000000;fontStyle=0" parent="1" vertex="1">
          <mxGeometry x="685" y="147" width="140" height="36" as="geometry" />
        </mxCell>
        <mxCell id="7" value="&lt;span style=&quot;font-size: 20px;&quot;&gt;匯入必要的套件&lt;/span&gt;" style="text;html=1;strokeColor=none;fillColor=none;align=left;verticalAlign=middle;whiteSpace=wrap;rounded=0;shadow=0;labelBackgroundColor=none;fontSize=20;fontColor=#000000;fontStyle=0" parent="1" vertex="1">
          <mxGeometry x="675" y="242.5" width="150" height="65" as="geometry" />
        </mxCell>
        <mxCell id="8" value="&lt;span style=&quot;font-size: 20px;&quot;&gt;宣告函式，並且從這裡開始執行&lt;/span&gt;" style="text;html=1;strokeColor=none;fillColor=none;align=left;verticalAlign=middle;whiteSpace=wrap;rounded=0;shadow=0;labelBackgroundColor=none;fontSize=20;fontColor=#000000;fontStyle=0" parent="1" vertex="1">
          <mxGeometry x="685" y="393" width="160" height="65" as="geometry" />
        </mxCell>
        <mxCell id="12" value="撰寫格式" style="rounded=0;whiteSpace=wrap;html=1;shadow=0;labelBackgroundColor=none;strokeColor=#d79b00;strokeWidth=2;fillColor=#ffe6cc;fontSize=22;fontColor=#000000;align=center;" parent="1" vertex="1">
          <mxGeometry x="60" y="120" width="160" height="91" as="geometry" />
        </mxCell>
      </root>
    </mxGraphModel>
  </diagram>
  <diagram name="CLI" id="yyK29wslttAz5uczmgIA">
    <mxGraphModel dx="2074" dy="1267" grid="1" gridSize="10" guides="1" tooltips="1" connect="1" arrows="1" fold="1" page="1" pageScale="1" pageWidth="1100" pageHeight="850" background="#ffffff" math="0" shadow="0">
      <root>
        <mxCell id="0" />
        <mxCell id="1" parent="0" />
        <mxCell id="2" value="" style="rounded=0;whiteSpace=wrap;html=1;shadow=0;labelBackgroundColor=none;strokeColor=#080808;strokeWidth=2;fillColor=#ffffff;fontSize=14;fontColor=#000000;align=left;" parent="1" vertex="1">
          <mxGeometry x="310" y="110" width="240" height="500" as="geometry" />
        </mxCell>
        <mxCell id="3" value="Go CLI" style="text;html=1;strokeColor=none;fillColor=none;align=center;verticalAlign=middle;whiteSpace=wrap;rounded=0;shadow=0;labelBackgroundColor=none;fontSize=32;fontColor=#000000;" parent="1" vertex="1">
          <mxGeometry x="315" y="78" width="230" height="30" as="geometry" />
        </mxCell>
        <mxCell id="11" style="edgeStyle=orthogonalEdgeStyle;rounded=0;html=1;exitX=1;exitY=0.5;startArrow=none;startFill=0;endArrow=classic;endFill=1;jettySize=auto;orthogonalLoop=1;strokeColor=#000000;strokeWidth=3;fontSize=32;fontColor=#000000;" parent="1" source="6" edge="1">
          <mxGeometry relative="1" as="geometry">
            <mxPoint x="590" y="160" as="targetPoint" />
          </mxGeometry>
        </mxCell>
        <mxCell id="6" value="go build" style="rounded=0;whiteSpace=wrap;html=1;shadow=0;labelBackgroundColor=none;strokeColor=#080808;strokeWidth=2;fillColor=#ffffff;fontSize=32;fontColor=#000000;align=center;flipV=1;" parent="1" vertex="1">
          <mxGeometry x="330" y="130" width="200" height="60" as="geometry" />
        </mxCell>
        <mxCell id="7" value="go run" style="rounded=0;whiteSpace=wrap;html=1;shadow=0;labelBackgroundColor=none;strokeColor=#080808;strokeWidth=2;fillColor=#ffffff;fontSize=32;fontColor=#000000;align=center;flipV=1;fontStyle=0" parent="1" vertex="1">
          <mxGeometry x="330" y="210" width="200" height="60" as="geometry" />
        </mxCell>
        <mxCell id="8" value="go fmt" style="rounded=0;whiteSpace=wrap;html=1;shadow=0;labelBackgroundColor=none;strokeColor=#080808;strokeWidth=2;fillColor=#ffffff;fontSize=32;fontColor=#000000;align=center;flipV=1;" parent="1" vertex="1">
          <mxGeometry x="330" y="290" width="200" height="60" as="geometry" />
        </mxCell>
        <mxCell id="9" value="go install" style="rounded=0;whiteSpace=wrap;html=1;shadow=0;labelBackgroundColor=none;strokeColor=#080808;strokeWidth=2;fillColor=#ffffff;fontSize=32;fontColor=#000000;align=center;flipV=1;" parent="1" vertex="1">
          <mxGeometry x="330" y="370" width="200" height="60" as="geometry" />
        </mxCell>
        <mxCell id="10" value="go test" style="rounded=0;whiteSpace=wrap;html=1;shadow=0;labelBackgroundColor=none;strokeColor=#080808;strokeWidth=2;fillColor=#ffffff;fontSize=32;fontColor=#000000;align=center;flipV=1;" parent="1" vertex="1">
          <mxGeometry x="330" y="530" width="200" height="60" as="geometry" />
        </mxCell>
        <mxCell id="12" value="將專案程式碼進行打包" style="text;html=1;strokeColor=none;fillColor=none;align=left;verticalAlign=middle;whiteSpace=wrap;rounded=0;shadow=0;labelBackgroundColor=none;fontSize=16;fontColor=#000000;" parent="1" vertex="1">
          <mxGeometry x="600" y="135" width="240" height="50" as="geometry" />
        </mxCell>
        <mxCell id="13" style="edgeStyle=orthogonalEdgeStyle;rounded=0;html=1;exitX=1;exitY=0.5;startArrow=none;startFill=0;endArrow=classic;endFill=1;jettySize=auto;orthogonalLoop=1;strokeColor=#000000;strokeWidth=3;fontSize=32;fontColor=#000000;" parent="1" edge="1">
          <mxGeometry relative="1" as="geometry">
            <mxPoint x="590" y="240" as="targetPoint" />
            <mxPoint x="530" y="240" as="sourcePoint" />
          </mxGeometry>
        </mxCell>
        <mxCell id="14" value="編譯並執行" style="text;html=1;strokeColor=none;fillColor=none;align=left;verticalAlign=middle;whiteSpace=wrap;rounded=0;shadow=0;labelBackgroundColor=none;fontSize=16;fontColor=#000000;" parent="1" vertex="1">
          <mxGeometry x="600" y="215" width="240" height="50" as="geometry" />
        </mxCell>
        <mxCell id="17" style="edgeStyle=orthogonalEdgeStyle;rounded=0;html=1;exitX=1;exitY=0.5;startArrow=none;startFill=0;endArrow=classic;endFill=1;jettySize=auto;orthogonalLoop=1;strokeColor=#000000;strokeWidth=3;fontSize=32;fontColor=#000000;" parent="1" edge="1">
          <mxGeometry relative="1" as="geometry">
            <mxPoint x="590" y="320" as="targetPoint" />
            <mxPoint x="530" y="320" as="sourcePoint" />
          </mxGeometry>
        </mxCell>
        <mxCell id="18" value="格式化所在在料夾中的原始碼檔案" style="text;html=1;strokeColor=none;fillColor=none;align=left;verticalAlign=middle;whiteSpace=wrap;rounded=0;shadow=0;labelBackgroundColor=none;fontSize=16;fontColor=#000000;" parent="1" vertex="1">
          <mxGeometry x="600" y="295" width="240" height="50" as="geometry" />
        </mxCell>
        <mxCell id="19" style="edgeStyle=orthogonalEdgeStyle;rounded=0;html=1;exitX=1;exitY=0.5;startArrow=none;startFill=0;endArrow=classic;endFill=1;jettySize=auto;orthogonalLoop=1;strokeColor=#000000;strokeWidth=3;fontSize=32;fontColor=#000000;" parent="1" edge="1">
          <mxGeometry relative="1" as="geometry">
            <mxPoint x="590" y="400" as="targetPoint" />
            <mxPoint x="530" y="400" as="sourcePoint" />
          </mxGeometry>
        </mxCell>
        <mxCell id="20" value="指令用於安裝原始碼，將生成的二進制文件安裝到bin目錄中" style="text;html=1;strokeColor=none;fillColor=none;align=left;verticalAlign=middle;whiteSpace=wrap;rounded=0;shadow=0;labelBackgroundColor=none;fontSize=16;fontColor=#000000;" parent="1" vertex="1">
          <mxGeometry x="600" y="375" width="240" height="50" as="geometry" />
        </mxCell>
        <mxCell id="21" value="go get" style="rounded=0;whiteSpace=wrap;html=1;shadow=0;labelBackgroundColor=none;strokeColor=#080808;strokeWidth=2;fillColor=#ffffff;fontSize=32;fontColor=#000000;align=center;flipV=1;" parent="1" vertex="1">
          <mxGeometry x="330" y="450" width="200" height="60" as="geometry" />
        </mxCell>
        <mxCell id="22" style="edgeStyle=orthogonalEdgeStyle;rounded=0;html=1;exitX=1;exitY=0.5;startArrow=none;startFill=0;endArrow=classic;endFill=1;jettySize=auto;orthogonalLoop=1;strokeColor=#000000;strokeWidth=3;fontSize=32;fontColor=#000000;" parent="1" edge="1">
          <mxGeometry relative="1" as="geometry">
            <mxPoint x="590" y="480" as="targetPoint" />
            <mxPoint x="530" y="480" as="sourcePoint" />
          </mxGeometry>
        </mxCell>
        <mxCell id="23" value="下載第三方package的程式碼" style="text;html=1;strokeColor=none;fillColor=none;align=left;verticalAlign=middle;whiteSpace=wrap;rounded=0;shadow=0;labelBackgroundColor=none;fontSize=16;fontColor=#000000;" parent="1" vertex="1">
          <mxGeometry x="600" y="455" width="240" height="50" as="geometry" />
        </mxCell>
        <mxCell id="24" style="edgeStyle=orthogonalEdgeStyle;rounded=0;html=1;exitX=1;exitY=0.5;startArrow=none;startFill=0;endArrow=classic;endFill=1;jettySize=auto;orthogonalLoop=1;strokeColor=#000000;strokeWidth=3;fontSize=32;fontColor=#000000;" parent="1" edge="1">
          <mxGeometry relative="1" as="geometry">
            <mxPoint x="590" y="560" as="targetPoint" />
            <mxPoint x="530" y="560" as="sourcePoint" />
          </mxGeometry>
        </mxCell>
        <mxCell id="25" value="執行所有的測試程式" style="text;html=1;strokeColor=none;fillColor=none;align=left;verticalAlign=middle;whiteSpace=wrap;rounded=0;shadow=0;labelBackgroundColor=none;fontSize=16;fontColor=#000000;" parent="1" vertex="1">
          <mxGeometry x="600" y="535" width="240" height="50" as="geometry" />
        </mxCell>
        <mxCell id="26" style="edgeStyle=orthogonalEdgeStyle;rounded=0;html=1;exitX=0.5;exitY=1;entryX=0.5;entryY=1;startArrow=none;startFill=0;endArrow=classic;endFill=1;jettySize=auto;orthogonalLoop=1;strokeColor=#000000;strokeWidth=3;fontSize=16;fontColor=#000000;" parent="1" source="25" target="25" edge="1">
          <mxGeometry relative="1" as="geometry" />
        </mxCell>
        <mxCell id="27" value="How do we run the code in our project?" style="rounded=0;whiteSpace=wrap;html=1;shadow=0;labelBackgroundColor=none;strokeColor=#6c8ebf;strokeWidth=2;fillColor=#dae8fc;fontSize=22;fontColor=#000000;align=center;" parent="1" vertex="1">
          <mxGeometry x="20" y="85" width="210" height="65" as="geometry" />
        </mxCell>
      </root>
    </mxGraphModel>
  </diagram>
  <diagram name="run vs build" id="Cs9sLk8kQ64lB6Fs6jYH">
    <mxGraphModel dx="1975" dy="1207" grid="1" gridSize="10" guides="1" tooltips="1" connect="1" arrows="1" fold="1" page="1" pageScale="1" pageWidth="1100" pageHeight="850" background="#ffffff" math="0" shadow="0">
      <root>
        <mxCell id="0" />
        <mxCell id="1" parent="0" />
        <mxCell id="20" style="edgeStyle=orthogonalEdgeStyle;rounded=0;html=1;exitX=0.5;exitY=1;entryX=0.5;entryY=0;startArrow=none;startFill=0;endArrow=classic;endFill=1;jettySize=auto;orthogonalLoop=1;strokeColor=#000000;strokeWidth=3;fontSize=22;fontColor=#000000;" parent="1" target="13" edge="1">
          <mxGeometry relative="1" as="geometry">
            <mxPoint x="433" y="230" as="sourcePoint" />
          </mxGeometry>
        </mxCell>
        <mxCell id="2" value="" style="rounded=0;whiteSpace=wrap;html=1;shadow=0;labelBackgroundColor=none;strokeColor=#080808;strokeWidth=2;fillColor=#ffffff;fontSize=32;fontColor=#000000;align=center;" parent="1" vertex="1">
          <mxGeometry x="401" y="120" width="333" height="110" as="geometry" />
        </mxCell>
        <mxCell id="3" value="Raw Source Code" style="text;html=1;strokeColor=none;fillColor=none;align=center;verticalAlign=middle;whiteSpace=wrap;rounded=0;shadow=0;labelBackgroundColor=none;fontSize=32;fontColor=#000000;" parent="1" vertex="1">
          <mxGeometry x="400" y="90" width="330" height="20" as="geometry" />
        </mxCell>
        <mxCell id="4" value="main.go" style="rounded=0;whiteSpace=wrap;html=1;shadow=0;labelBackgroundColor=none;strokeColor=#080808;strokeWidth=2;fillColor=#ffffff;fontSize=32;fontColor=#000000;align=center;" parent="1" vertex="1">
          <mxGeometry x="493" y="145" width="150" height="60" as="geometry" />
        </mxCell>
        <mxCell id="22" style="edgeStyle=orthogonalEdgeStyle;rounded=0;html=1;exitX=0.5;exitY=1;entryX=0.5;entryY=0;startArrow=none;startFill=0;endArrow=classic;endFill=1;jettySize=auto;orthogonalLoop=1;strokeColor=#000000;strokeWidth=3;fontSize=22;fontColor=#000000;" parent="1" source="8" target="10" edge="1">
          <mxGeometry relative="1" as="geometry" />
        </mxCell>
        <mxCell id="8" value="Go Compiler" style="rounded=0;whiteSpace=wrap;html=1;shadow=0;labelBackgroundColor=none;strokeColor=#080808;strokeWidth=2;fillColor=#ffffff;fontSize=22;fontColor=#000000;align=center;" parent="1" vertex="1">
          <mxGeometry x="322" y="340" width="222" height="40" as="geometry" />
        </mxCell>
        <mxCell id="23" style="edgeStyle=orthogonalEdgeStyle;rounded=0;html=1;exitX=0.5;exitY=1;entryX=0.5;entryY=0;startArrow=none;startFill=0;endArrow=classic;endFill=1;jettySize=auto;orthogonalLoop=1;strokeColor=#000000;strokeWidth=3;fontSize=22;fontColor=#000000;" parent="1" source="10" target="19" edge="1">
          <mxGeometry relative="1" as="geometry" />
        </mxCell>
        <mxCell id="10" value="Executable Program" style="rounded=0;whiteSpace=wrap;html=1;shadow=0;labelBackgroundColor=none;strokeColor=#080808;strokeWidth=2;fillColor=#ffffff;fontSize=22;fontColor=#000000;align=center;" parent="1" vertex="1">
          <mxGeometry x="321" y="420" width="223" height="40" as="geometry" />
        </mxCell>
        <mxCell id="11" value="CLI run vs build" style="rounded=0;whiteSpace=wrap;html=1;shadow=0;labelBackgroundColor=none;strokeColor=#6c8ebf;strokeWidth=2;fillColor=#dae8fc;fontSize=22;fontColor=#000000;align=center;" parent="1" vertex="1">
          <mxGeometry x="90" y="100" width="210" height="65" as="geometry" />
        </mxCell>
        <mxCell id="21" style="edgeStyle=orthogonalEdgeStyle;rounded=0;html=1;exitX=0.5;exitY=1;entryX=0.5;entryY=0;startArrow=none;startFill=0;endArrow=classic;endFill=1;jettySize=auto;orthogonalLoop=1;strokeColor=#000000;strokeWidth=3;fontSize=22;fontColor=#000000;" parent="1" source="13" target="8" edge="1">
          <mxGeometry relative="1" as="geometry" />
        </mxCell>
        <mxCell id="13" value="go &lt;b&gt;run&lt;/b&gt; main.go" style="rounded=0;whiteSpace=wrap;html=1;shadow=0;labelBackgroundColor=none;strokeColor=#080808;strokeWidth=2;fillColor=#ffffff;fontSize=22;fontColor=#000000;align=center;fontStyle=2" parent="1" vertex="1">
          <mxGeometry x="322" y="260" width="222" height="40" as="geometry" />
        </mxCell>
        <mxCell id="19" value="Runs the program" style="rounded=0;whiteSpace=wrap;html=1;shadow=0;labelBackgroundColor=none;strokeColor=#080808;strokeWidth=2;fillColor=#ffffff;fontSize=22;fontColor=#000000;align=center;" parent="1" vertex="1">
          <mxGeometry x="321" y="500" width="223" height="40" as="geometry" />
        </mxCell>
        <mxCell id="24" style="edgeStyle=orthogonalEdgeStyle;rounded=0;html=1;exitX=0.5;exitY=1;entryX=0.5;entryY=0;startArrow=none;startFill=0;endArrow=classic;endFill=1;jettySize=auto;orthogonalLoop=1;strokeColor=#000000;strokeWidth=3;fontSize=22;fontColor=#000000;" parent="1" target="30" edge="1">
          <mxGeometry relative="1" as="geometry">
            <mxPoint x="713" y="230" as="sourcePoint" />
          </mxGeometry>
        </mxCell>
        <mxCell id="25" style="edgeStyle=orthogonalEdgeStyle;rounded=0;html=1;exitX=0.5;exitY=1;entryX=0.5;entryY=0;startArrow=none;startFill=0;endArrow=classic;endFill=1;jettySize=auto;orthogonalLoop=1;strokeColor=#000000;strokeWidth=3;fontSize=22;fontColor=#000000;" parent="1" source="26" target="28" edge="1">
          <mxGeometry relative="1" as="geometry" />
        </mxCell>
        <mxCell id="26" value="Go Compiler" style="rounded=0;whiteSpace=wrap;html=1;shadow=0;labelBackgroundColor=none;strokeColor=#080808;strokeWidth=2;fillColor=#ffffff;fontSize=22;fontColor=#000000;align=center;" parent="1" vertex="1">
          <mxGeometry x="602" y="340" width="222" height="40" as="geometry" />
        </mxCell>
        <mxCell id="28" value="Executable Program" style="rounded=0;whiteSpace=wrap;html=1;shadow=0;labelBackgroundColor=none;strokeColor=#080808;strokeWidth=2;fillColor=#ffffff;fontSize=22;fontColor=#000000;align=center;" parent="1" vertex="1">
          <mxGeometry x="601" y="420" width="223" height="40" as="geometry" />
        </mxCell>
        <mxCell id="29" style="edgeStyle=orthogonalEdgeStyle;rounded=0;html=1;exitX=0.5;exitY=1;entryX=0.5;entryY=0;startArrow=none;startFill=0;endArrow=classic;endFill=1;jettySize=auto;orthogonalLoop=1;strokeColor=#000000;strokeWidth=3;fontSize=22;fontColor=#000000;" parent="1" source="30" target="26" edge="1">
          <mxGeometry relative="1" as="geometry" />
        </mxCell>
        <mxCell id="30" value="go &lt;b&gt;build&lt;/b&gt; main.go" style="rounded=0;whiteSpace=wrap;html=1;shadow=0;labelBackgroundColor=none;strokeColor=#080808;strokeWidth=2;fillColor=#ffffff;fontSize=22;fontColor=#000000;align=center;fontStyle=2" parent="1" vertex="1">
          <mxGeometry x="602" y="260" width="222" height="40" as="geometry" />
        </mxCell>
        <mxCell id="32" value="build" style="text;html=1;strokeColor=none;fillColor=none;align=center;verticalAlign=middle;whiteSpace=wrap;rounded=0;shadow=0;labelBackgroundColor=none;fontSize=32;fontColor=#000000;fontStyle=2" parent="1" vertex="1">
          <mxGeometry x="840" y="270" width="70" height="20" as="geometry" />
        </mxCell>
        <mxCell id="33" value="run" style="text;html=1;strokeColor=none;fillColor=none;align=center;verticalAlign=middle;whiteSpace=wrap;rounded=0;shadow=0;labelBackgroundColor=none;fontSize=32;fontColor=#000000;fontStyle=2" parent="1" vertex="1">
          <mxGeometry x="250" y="270" width="70" height="20" as="geometry" />
        </mxCell>
      </root>
    </mxGraphModel>
  </diagram>
  <diagram name="問題" id="8JhreoDX4MUA093kfMXe">
    <mxGraphModel dx="1430" dy="874" grid="1" gridSize="10" guides="1" tooltips="1" connect="1" arrows="1" fold="1" page="1" pageScale="1" pageWidth="1100" pageHeight="850" background="#ffffff" math="0" shadow="0">
      <root>
        <mxCell id="0" />
        <mxCell id="1" parent="0" />
        <mxCell id="2" value="我們要怎麼&lt;br&gt;執行程式" style="rounded=0;whiteSpace=wrap;html=1;shadow=0;labelBackgroundColor=none;strokeColor=#6c8ebf;strokeWidth=2;fillColor=#dae8fc;fontSize=32;fontColor=#000000;align=center;" parent="1" vertex="1">
          <mxGeometry x="235" y="150" width="290" height="130" as="geometry" />
        </mxCell>
        <mxCell id="3" value="問題！" style="text;html=1;strokeColor=none;fillColor=none;align=center;verticalAlign=middle;whiteSpace=wrap;rounded=0;shadow=0;labelBackgroundColor=none;fontSize=32;fontColor=#000000;fontStyle=5" parent="1" vertex="1">
          <mxGeometry x="445" y="80" width="200" height="50" as="geometry" />
        </mxCell>
        <mxCell id="4" value="&#39;&lt;i&gt;package main&lt;/i&gt;&#39; &lt;br&gt;是什麼" style="rounded=0;whiteSpace=wrap;html=1;shadow=0;labelBackgroundColor=none;strokeColor=#82b366;strokeWidth=2;fillColor=#d5e8d4;fontSize=32;fontColor=#000000;align=center;" parent="1" vertex="1">
          <mxGeometry x="580" y="150" width="290" height="130" as="geometry" />
        </mxCell>
        <mxCell id="5" value="&#39;&lt;i&gt;import &quot;fmt&quot;&lt;/i&gt;&#39;&lt;br&gt;有什麼作用？" style="rounded=0;whiteSpace=wrap;html=1;shadow=0;labelBackgroundColor=none;strokeColor=#b85450;strokeWidth=2;fillColor=#f8cecc;fontSize=32;fontColor=#000000;align=center;" parent="1" vertex="1">
          <mxGeometry x="235" y="300" width="290" height="130" as="geometry" />
        </mxCell>
        <mxCell id="6" value="main.go&lt;br&gt;又是做什麼的？" style="rounded=0;whiteSpace=wrap;html=1;shadow=0;labelBackgroundColor=none;strokeColor=#d79b00;strokeWidth=2;fillColor=#ffe6cc;fontSize=32;fontColor=#000000;align=center;" parent="1" vertex="1">
          <mxGeometry x="405" y="460" width="290" height="130" as="geometry" />
        </mxCell>
        <mxCell id="7" value="&amp;nbsp;&#39;&lt;i&gt;func&#39; &lt;/i&gt;?" style="rounded=0;whiteSpace=wrap;html=1;shadow=0;labelBackgroundColor=none;strokeColor=#9673a6;strokeWidth=2;fillColor=#e1d5e7;fontSize=32;fontColor=#000000;align=center;" parent="1" vertex="1">
          <mxGeometry x="575" y="300" width="290" height="130" as="geometry" />
        </mxCell>
      </root>
    </mxGraphModel>
  </diagram>
  <diagram name="套件種類" id="I3NnYm1DnT9o7DaJXU7h">
    <mxGraphModel dx="1296" dy="792" grid="1" gridSize="10" guides="1" tooltips="1" connect="1" arrows="1" fold="1" page="1" pageScale="1" pageWidth="1100" pageHeight="850" background="#ffffff" math="0" shadow="0">
      <root>
        <mxCell id="0" />
        <mxCell id="1" parent="0" />
        <mxCell id="2" value="執行檔" style="rounded=0;whiteSpace=wrap;html=1;shadow=0;labelBackgroundColor=none;strokeColor=#080808;strokeWidth=2;fillColor=#ffffff;fontSize=24;fontColor=#000000;align=center;" parent="1" vertex="1">
          <mxGeometry x="360" y="225" width="160" height="60" as="geometry" />
        </mxCell>
        <mxCell id="3" value="套件" style="rounded=0;whiteSpace=wrap;html=1;shadow=0;labelBackgroundColor=none;strokeColor=#080808;strokeWidth=2;fillColor=#ffffff;fontSize=24;fontColor=#000000;align=center;" parent="1" vertex="1">
          <mxGeometry x="600" y="225" width="160" height="60" as="geometry" />
        </mxCell>
        <mxCell id="5" value="Types of Packages" style="text;html=1;strokeColor=none;fillColor=none;align=center;verticalAlign=middle;whiteSpace=wrap;rounded=0;shadow=0;labelBackgroundColor=none;fontSize=24;fontColor=#000000;" parent="1" vertex="1">
          <mxGeometry x="430" y="165" width="250" height="40" as="geometry" />
        </mxCell>
      </root>
    </mxGraphModel>
  </diagram>
  <diagram name="執行檔" id="gQ6qhaQJIVrhE7GDkOrB">
    <mxGraphModel dx="1185" dy="724" grid="1" gridSize="10" guides="1" tooltips="1" connect="1" arrows="1" fold="1" page="1" pageScale="1" pageWidth="1100" pageHeight="850" background="#ffffff" math="0" shadow="0">
      <root>
        <mxCell id="0" />
        <mxCell id="1" parent="0" />
        <mxCell id="10" style="edgeStyle=orthogonalEdgeStyle;rounded=0;html=1;exitX=0.5;exitY=1;entryX=0.5;entryY=0;startArrow=none;startFill=0;endArrow=classic;endFill=1;jettySize=auto;orthogonalLoop=1;strokeColor=#000000;strokeWidth=3;fontSize=24;fontColor=#000000;" parent="1" source="8" target="9" edge="1">
          <mxGeometry relative="1" as="geometry" />
        </mxCell>
        <mxCell id="8" value="package main" style="rounded=0;whiteSpace=wrap;html=1;shadow=0;labelBackgroundColor=none;strokeColor=#080808;strokeWidth=2;fillColor=#ffffff;fontSize=24;fontColor=#000000;align=center;" parent="1" vertex="1">
          <mxGeometry x="460" y="90" width="180" height="60" as="geometry" />
        </mxCell>
        <mxCell id="12" style="edgeStyle=orthogonalEdgeStyle;rounded=0;html=1;exitX=0.5;exitY=1;entryX=0.5;entryY=0;startArrow=none;startFill=0;endArrow=classic;endFill=1;jettySize=auto;orthogonalLoop=1;strokeColor=#000000;strokeWidth=3;fontSize=24;fontColor=#000000;" parent="1" source="9" target="11" edge="1">
          <mxGeometry relative="1" as="geometry" />
        </mxCell>
        <mxCell id="9" value="go build" style="rounded=0;whiteSpace=wrap;html=1;shadow=0;labelBackgroundColor=none;strokeColor=#080808;strokeWidth=2;fillColor=#ffffff;fontSize=24;fontColor=#000000;align=center;" parent="1" vertex="1">
          <mxGeometry x="415" y="200" width="270" height="90" as="geometry" />
        </mxCell>
        <mxCell id="11" value="main.exe" style="rounded=0;whiteSpace=wrap;html=1;shadow=0;labelBackgroundColor=none;strokeColor=#080808;strokeWidth=2;fillColor=#ffffff;fontSize=24;fontColor=#000000;align=center;" parent="1" vertex="1">
          <mxGeometry x="490" y="350" width="120" height="60" as="geometry" />
        </mxCell>
        <mxCell id="13" value="可直接執行的程式" style="text;html=1;strokeColor=none;fillColor=none;align=left;verticalAlign=middle;whiteSpace=wrap;rounded=0;shadow=0;labelBackgroundColor=none;fontSize=12;fontColor=#000000;fontStyle=2" parent="1" vertex="1">
          <mxGeometry x="620" y="370" width="150" height="20" as="geometry" />
        </mxCell>
        <mxCell id="14" value="執行檔" style="rounded=0;whiteSpace=wrap;html=1;shadow=0;labelBackgroundColor=none;strokeColor=#82b366;strokeWidth=2;fillColor=#d5e8d4;fontSize=22;fontColor=#000000;align=center;" parent="1" vertex="1">
          <mxGeometry x="190" y="90" width="170" height="80" as="geometry" />
        </mxCell>
      </root>
    </mxGraphModel>
  </diagram>
  <diagram name="套件" id="WtTAEhJ3kuKvsZqgZdXl">
    <mxGraphModel dx="1338" dy="817" grid="1" gridSize="10" guides="1" tooltips="1" connect="1" arrows="1" fold="1" page="1" pageScale="1" pageWidth="1100" pageHeight="850" background="#ffffff" math="0" shadow="0">
      <root>
        <mxCell id="0" />
        <mxCell id="1" parent="0" />
        <mxCell id="2" style="edgeStyle=orthogonalEdgeStyle;rounded=0;html=1;exitX=0.5;exitY=1;entryX=0.5;entryY=0;startArrow=none;startFill=0;endArrow=classic;endFill=1;jettySize=auto;orthogonalLoop=1;strokeColor=#000000;strokeWidth=3;fontSize=24;fontColor=#000000;" parent="1" source="3" target="5" edge="1">
          <mxGeometry relative="1" as="geometry" />
        </mxCell>
        <mxCell id="3" value="package blahblah" style="rounded=0;whiteSpace=wrap;html=1;shadow=0;labelBackgroundColor=none;strokeColor=#080808;strokeWidth=2;fillColor=#ffffff;fontSize=24;fontColor=#000000;align=center;" parent="1" vertex="1">
          <mxGeometry x="430" y="90" width="240" height="60" as="geometry" />
        </mxCell>
        <mxCell id="4" style="edgeStyle=orthogonalEdgeStyle;rounded=0;html=1;exitX=0.5;exitY=1;entryX=0.5;entryY=0;startArrow=none;startFill=0;endArrow=classic;endFill=1;jettySize=auto;orthogonalLoop=1;strokeColor=#000000;strokeWidth=3;fontSize=24;fontColor=#000000;" parent="1" source="5" target="6" edge="1">
          <mxGeometry relative="1" as="geometry" />
        </mxCell>
        <mxCell id="5" value="go build" style="rounded=0;whiteSpace=wrap;html=1;shadow=0;labelBackgroundColor=none;strokeColor=#080808;strokeWidth=2;fillColor=#ffffff;fontSize=24;fontColor=#000000;align=center;" parent="1" vertex="1">
          <mxGeometry x="415" y="200" width="270" height="90" as="geometry" />
        </mxCell>
        <mxCell id="6" value="nothing!" style="rounded=0;whiteSpace=wrap;html=1;shadow=0;labelBackgroundColor=none;strokeColor=#080808;strokeWidth=2;fillColor=#ffffff;fontSize=24;fontColor=#000000;align=center;" parent="1" vertex="1">
          <mxGeometry x="490" y="350" width="120" height="60" as="geometry" />
        </mxCell>
        <mxCell id="7" value="啥都沒有...." style="text;html=1;strokeColor=none;fillColor=none;align=left;verticalAlign=middle;whiteSpace=wrap;rounded=0;shadow=0;labelBackgroundColor=none;fontSize=12;fontColor=#000000;fontStyle=2" parent="1" vertex="1">
          <mxGeometry x="620" y="370" width="150" height="20" as="geometry" />
        </mxCell>
        <mxCell id="8" value="套件" style="rounded=0;whiteSpace=wrap;html=1;shadow=0;labelBackgroundColor=none;strokeColor=#82b366;strokeWidth=2;fillColor=#d5e8d4;fontSize=22;fontColor=#000000;align=center;" parent="1" vertex="1">
          <mxGeometry x="170" y="80" width="170" height="80" as="geometry" />
        </mxCell>
      </root>
    </mxGraphModel>
  </diagram>
  <diagram name="執行檔vs套件" id="TPLV6NZ6KP3WplYmquMr">
    <mxGraphModel dx="1803" dy="1102" grid="1" gridSize="10" guides="1" tooltips="1" connect="1" arrows="1" fold="1" page="1" pageScale="1" pageWidth="1100" pageHeight="850" background="#ffffff" math="0" shadow="0">
      <root>
        <mxCell id="0" />
        <mxCell id="1" parent="0" />
        <mxCell id="27" style="edgeStyle=orthogonalEdgeStyle;rounded=0;html=1;exitX=1;exitY=0.5;startArrow=none;startFill=0;endArrow=classic;endFill=1;jettySize=auto;orthogonalLoop=1;strokeColor=#000000;strokeWidth=3;fontSize=22;fontColor=#000000;" parent="1" source="23" edge="1">
          <mxGeometry relative="1" as="geometry">
            <mxPoint x="550" y="230" as="targetPoint" />
          </mxGeometry>
        </mxCell>
        <mxCell id="23" value="package main" style="rounded=0;whiteSpace=wrap;html=1;shadow=0;labelBackgroundColor=none;strokeColor=#6c8ebf;strokeWidth=2;fillColor=#dae8fc;fontSize=22;fontColor=#000000;align=center;flipV=1;" parent="1" vertex="1">
          <mxGeometry x="280" y="200" width="210" height="60" as="geometry" />
        </mxCell>
        <mxCell id="25" value="package calculator" style="rounded=0;whiteSpace=wrap;html=1;shadow=0;labelBackgroundColor=none;strokeColor=#080808;strokeWidth=2;fillColor=#ffffff;fontSize=22;fontColor=#000000;align=center;flipV=1;" parent="1" vertex="1">
          <mxGeometry x="280" y="330" width="210" height="60" as="geometry" />
        </mxCell>
        <mxCell id="26" value="package uploader" style="rounded=0;whiteSpace=wrap;html=1;shadow=0;labelBackgroundColor=none;strokeColor=#080808;strokeWidth=2;fillColor=#ffffff;fontSize=22;fontColor=#000000;align=center;flipV=1;" parent="1" vertex="1">
          <mxGeometry x="280" y="470" width="210" height="60" as="geometry" />
        </mxCell>
        <mxCell id="28" value="定義一個可以被編譯成執行檔案的package&lt;br&gt;&lt;b&gt;#必須有一個func main()&lt;br&gt;&lt;/b&gt;" style="text;html=1;strokeColor=none;fillColor=none;align=left;verticalAlign=middle;whiteSpace=wrap;rounded=0;shadow=0;labelBackgroundColor=none;fontSize=22;fontColor=#000000;" parent="1" vertex="1">
          <mxGeometry x="560" y="190" width="360" height="80" as="geometry" />
        </mxCell>
        <mxCell id="29" style="edgeStyle=orthogonalEdgeStyle;rounded=0;html=1;exitX=1;exitY=0.5;startArrow=none;startFill=0;endArrow=classic;endFill=1;jettySize=auto;orthogonalLoop=1;strokeColor=#000000;strokeWidth=3;fontSize=22;fontColor=#000000;" parent="1" edge="1">
          <mxGeometry relative="1" as="geometry">
            <mxPoint x="550" y="360" as="targetPoint" />
            <mxPoint x="490" y="360" as="sourcePoint" />
          </mxGeometry>
        </mxCell>
        <mxCell id="30" value="定義一個套件，並且可以被引用" style="text;html=1;strokeColor=none;fillColor=none;align=left;verticalAlign=middle;whiteSpace=wrap;rounded=0;shadow=0;labelBackgroundColor=none;fontSize=22;fontColor=#000000;" parent="1" vertex="1">
          <mxGeometry x="560" y="320" width="350" height="80" as="geometry" />
        </mxCell>
        <mxCell id="33" style="edgeStyle=orthogonalEdgeStyle;rounded=0;html=1;exitX=1;exitY=0.5;startArrow=none;startFill=0;endArrow=classic;endFill=1;jettySize=auto;orthogonalLoop=1;strokeColor=#000000;strokeWidth=3;fontSize=22;fontColor=#000000;" parent="1" edge="1">
          <mxGeometry relative="1" as="geometry">
            <mxPoint x="550" y="500" as="targetPoint" />
            <mxPoint x="490" y="500" as="sourcePoint" />
          </mxGeometry>
        </mxCell>
        <mxCell id="34" value="定義一個套件，並且可以被引用" style="text;html=1;strokeColor=none;fillColor=none;align=left;verticalAlign=middle;whiteSpace=wrap;rounded=0;shadow=0;labelBackgroundColor=none;fontSize=22;fontColor=#000000;" parent="1" vertex="1">
          <mxGeometry x="560" y="460" width="350" height="80" as="geometry" />
        </mxCell>
        <mxCell id="35" value="&quot;main&quot; is special" style="text;html=1;strokeColor=none;fillColor=none;align=center;verticalAlign=middle;whiteSpace=wrap;rounded=0;shadow=0;labelBackgroundColor=none;fontSize=16;fontColor=#000000;fontStyle=2" parent="1" vertex="1">
          <mxGeometry x="300" y="248" width="170" height="50" as="geometry" />
        </mxCell>
        <mxCell id="36" value="" style="shape=curlyBracket;whiteSpace=wrap;html=1;rounded=1;shadow=0;labelBackgroundColor=none;strokeColor=#080808;strokeWidth=2;fillColor=#ffffff;fontSize=24;fontColor=#000000;align=center;" parent="1" vertex="1">
          <mxGeometry x="220" y="200" width="50" height="60" as="geometry" />
        </mxCell>
        <mxCell id="37" value="執行檔" style="text;html=1;strokeColor=none;fillColor=none;align=right;verticalAlign=middle;whiteSpace=wrap;rounded=0;shadow=0;labelBackgroundColor=none;fontSize=14;fontColor=#000000;" parent="1" vertex="1">
          <mxGeometry x="160" y="220" width="60" height="20" as="geometry" />
        </mxCell>
        <mxCell id="38" value="" style="shape=curlyBracket;whiteSpace=wrap;html=1;rounded=1;shadow=0;labelBackgroundColor=none;strokeColor=#080808;strokeWidth=2;fillColor=#ffffff;fontSize=24;fontColor=#000000;align=center;" parent="1" vertex="1">
          <mxGeometry x="220" y="330" width="50" height="200" as="geometry" />
        </mxCell>
        <mxCell id="39" value="套件" style="text;html=1;strokeColor=none;fillColor=none;align=right;verticalAlign=middle;whiteSpace=wrap;rounded=0;shadow=0;labelBackgroundColor=none;fontSize=14;fontColor=#000000;" parent="1" vertex="1">
          <mxGeometry x="130" y="415" width="90" height="30" as="geometry" />
        </mxCell>
        <mxCell id="40" style="edgeStyle=orthogonalEdgeStyle;rounded=0;html=1;exitX=0.5;exitY=0;entryX=0.5;entryY=0;startArrow=none;startFill=0;endArrow=classic;endFill=1;jettySize=auto;orthogonalLoop=1;strokeColor=#000000;strokeWidth=3;fontSize=14;fontColor=#000000;" parent="1" source="39" target="39" edge="1">
          <mxGeometry relative="1" as="geometry" />
        </mxCell>
      </root>
    </mxGraphModel>
  </diagram>
  <diagram name="package main邏輯" id="3o-O0k3PgWZVmlVcsZk2">
    <mxGraphModel dx="1536" dy="939" grid="1" gridSize="10" guides="1" tooltips="1" connect="1" arrows="1" fold="1" page="1" pageScale="1" pageWidth="1100" pageHeight="850" background="#ffffff" math="0" shadow="0">
      <root>
        <mxCell id="0" />
        <mxCell id="1" parent="0" />
        <mxCell id="5" value="" style="rounded=0;whiteSpace=wrap;html=1;shadow=0;labelBackgroundColor=none;strokeColor=#080808;strokeWidth=2;fillColor=#ffffff;fontSize=24;fontColor=#000000;align=center;" parent="1" vertex="1">
          <mxGeometry x="380" y="170" width="370" height="350" as="geometry" />
        </mxCell>
        <mxCell id="2" value="" style="rounded=0;whiteSpace=wrap;html=1;shadow=0;labelBackgroundColor=none;strokeColor=#080808;strokeWidth=2;fillColor=#ffffff;fontSize=24;fontColor=#000000;align=center;" parent="1" vertex="1">
          <mxGeometry x="400" y="216" width="150" height="120" as="geometry" />
        </mxCell>
        <mxCell id="6" value="Package Main" style="text;html=1;strokeColor=none;fillColor=none;align=center;verticalAlign=middle;whiteSpace=wrap;rounded=0;shadow=0;labelBackgroundColor=none;fontSize=32;fontColor=#000000;" parent="1" vertex="1">
          <mxGeometry x="445" y="130" width="230" height="30" as="geometry" />
        </mxCell>
        <mxCell id="8" value="&amp;nbsp;package main&lt;br&gt;的邏輯" style="rounded=0;whiteSpace=wrap;html=1;shadow=0;labelBackgroundColor=none;strokeColor=#82b366;strokeWidth=2;fillColor=#d5e8d4;fontSize=22;fontColor=#000000;align=center;" parent="1" vertex="1">
          <mxGeometry x="140" y="145" width="170" height="80" as="geometry" />
        </mxCell>
        <mxCell id="9" value="main.go" style="text;html=1;strokeColor=none;fillColor=none;align=center;verticalAlign=middle;whiteSpace=wrap;rounded=0;shadow=0;labelBackgroundColor=none;fontSize=22;fontColor=#000000;" parent="1" vertex="1">
          <mxGeometry x="420" y="190" width="40" height="20" as="geometry" />
        </mxCell>
        <mxCell id="10" value="&lt;div&gt;&lt;div&gt;&lt;span&gt;package&lt;/span&gt; main&lt;/div&gt;&lt;br&gt;&lt;div&gt;&lt;span&gt;import&lt;/span&gt;&lt;span&gt;&quot;fmt&quot;&lt;/span&gt;&lt;/div&gt;&lt;br&gt;&lt;div&gt;&lt;span&gt;func&lt;/span&gt;&lt;span&gt;main&lt;/span&gt;() {&lt;/div&gt;&lt;div&gt;&amp;nbsp;&amp;nbsp;&amp;nbsp;&amp;nbsp;fmt.&lt;span&gt;Println&lt;/span&gt;(&lt;span&gt;&quot;Hi there!&quot;&lt;/span&gt;)&lt;/div&gt;&lt;div&gt;}&lt;/div&gt;&lt;br&gt;&lt;/div&gt;" style="text;html=1;strokeColor=none;fillColor=none;align=left;verticalAlign=middle;whiteSpace=wrap;rounded=0;shadow=0;labelBackgroundColor=none;fontSize=12;fontColor=#000000;" parent="1" vertex="1">
          <mxGeometry x="405" y="223" width="130" height="116" as="geometry" />
        </mxCell>
        <mxCell id="11" value="" style="rounded=0;whiteSpace=wrap;html=1;shadow=0;labelBackgroundColor=none;strokeColor=#080808;strokeWidth=2;fillColor=#ffffff;fontSize=24;fontColor=#000000;align=center;" parent="1" vertex="1">
          <mxGeometry x="580" y="216" width="150" height="120" as="geometry" />
        </mxCell>
        <mxCell id="12" value="&lt;div style=&quot;text-align: left&quot;&gt;&lt;span&gt;support.go&lt;/span&gt;&lt;/div&gt;" style="text;html=1;strokeColor=none;fillColor=none;align=center;verticalAlign=middle;whiteSpace=wrap;rounded=0;shadow=0;labelBackgroundColor=none;fontSize=22;fontColor=#000000;" parent="1" vertex="1">
          <mxGeometry x="585" y="190" width="110" height="20" as="geometry" />
        </mxCell>
        <mxCell id="13" value="&lt;div&gt;&lt;span&gt;package&lt;/span&gt; main&lt;/div&gt;&lt;div&gt;&lt;br&gt;&lt;/div&gt;&lt;div&gt;&lt;span&gt;func&amp;nbsp;&lt;/span&gt;&lt;span&gt;support&lt;/span&gt;() {&lt;/div&gt;&lt;div&gt;&amp;nbsp;&amp;nbsp;&amp;nbsp;&amp;nbsp;fmt.&lt;span&gt;Println&lt;/span&gt;(&lt;span&gt;&quot;I help!&quot;&lt;/span&gt;)&lt;/div&gt;&lt;div&gt;}&lt;/div&gt;&lt;br&gt;" style="text;html=1;strokeColor=none;fillColor=none;align=left;verticalAlign=middle;whiteSpace=wrap;rounded=0;shadow=0;labelBackgroundColor=none;fontSize=12;fontColor=#000000;" parent="1" vertex="1">
          <mxGeometry x="583" y="214" width="185" height="92" as="geometry" />
        </mxCell>
        <mxCell id="14" value="" style="rounded=0;whiteSpace=wrap;html=1;shadow=0;labelBackgroundColor=none;strokeColor=#080808;strokeWidth=2;fillColor=#ffffff;fontSize=24;fontColor=#000000;align=center;" parent="1" vertex="1">
          <mxGeometry x="400" y="377" width="150" height="120" as="geometry" />
        </mxCell>
        <mxCell id="15" value="helper.go" style="text;html=1;strokeColor=none;fillColor=none;align=center;verticalAlign=middle;whiteSpace=wrap;rounded=0;shadow=0;labelBackgroundColor=none;fontSize=22;fontColor=#000000;" parent="1" vertex="1">
          <mxGeometry x="424" y="351" width="40" height="20" as="geometry" />
        </mxCell>
        <mxCell id="16" value="&lt;div&gt;&lt;span&gt;package&lt;/span&gt; main&lt;/div&gt;&lt;br&gt;&lt;div&gt;&lt;span&gt;func&amp;nbsp;&lt;/span&gt;&lt;span&gt;help&lt;/span&gt;() {&lt;/div&gt;&lt;div&gt;&amp;nbsp;&amp;nbsp;&amp;nbsp;&amp;nbsp;fmt.&lt;span&gt;Println&lt;/span&gt;(&lt;span&gt;&quot;I help too&quot;&lt;/span&gt;)&lt;/div&gt;&lt;div&gt;}&lt;/div&gt;&lt;br&gt;" style="text;html=1;strokeColor=none;fillColor=none;align=left;verticalAlign=middle;whiteSpace=wrap;rounded=0;shadow=0;labelBackgroundColor=none;fontSize=12;fontColor=#000000;" parent="1" vertex="1">
          <mxGeometry x="405" y="384" width="175" height="86" as="geometry" />
        </mxCell>
      </root>
    </mxGraphModel>
  </diagram>
  <diagram name="import的邏輯" id="Z1B0H3qTmJw7Cg8GdUXd">
    <mxGraphModel dx="1430" dy="874" grid="1" gridSize="10" guides="1" tooltips="1" connect="1" arrows="1" fold="1" page="1" pageScale="1" pageWidth="1100" pageHeight="850" background="#ffffff" math="0" shadow="0">
      <root>
        <mxCell id="0" />
        <mxCell id="1" parent="0" />
        <mxCell id="5" style="edgeStyle=orthogonalEdgeStyle;rounded=0;html=1;exitX=0.25;exitY=1;entryX=0.5;entryY=0;startArrow=none;startFill=0;endArrow=classic;endFill=1;jettySize=auto;orthogonalLoop=1;strokeColor=#000000;strokeWidth=3;fontSize=22;fontColor=#000000;" parent="1" source="2" target="4" edge="1">
          <mxGeometry relative="1" as="geometry" />
        </mxCell>
        <mxCell id="7" style="edgeStyle=orthogonalEdgeStyle;rounded=0;html=1;exitX=0.5;exitY=1;entryX=0.5;entryY=0;startArrow=none;startFill=0;endArrow=classic;endFill=1;jettySize=auto;orthogonalLoop=1;strokeColor=#000000;strokeWidth=3;fontSize=22;fontColor=#000000;" parent="1" source="2" target="6" edge="1">
          <mxGeometry relative="1" as="geometry" />
        </mxCell>
        <mxCell id="9" style="edgeStyle=orthogonalEdgeStyle;rounded=0;html=1;exitX=0.75;exitY=1;entryX=0.5;entryY=0;startArrow=none;startFill=0;endArrow=classic;endFill=1;jettySize=auto;orthogonalLoop=1;strokeColor=#000000;strokeWidth=3;fontSize=22;fontColor=#000000;" parent="1" source="2" target="8" edge="1">
          <mxGeometry relative="1" as="geometry" />
        </mxCell>
        <mxCell id="2" value="main" style="rounded=0;whiteSpace=wrap;html=1;shadow=0;labelBackgroundColor=none;strokeColor=#080808;strokeWidth=2;fillColor=#ffffff;fontSize=22;fontColor=#000000;align=center;" parent="1" vertex="1">
          <mxGeometry x="470" y="130" width="120" height="60" as="geometry" />
        </mxCell>
        <mxCell id="4" value="fmt" style="rounded=0;whiteSpace=wrap;html=1;shadow=0;labelBackgroundColor=none;strokeColor=#080808;strokeWidth=2;fillColor=#ffffff;fontSize=22;fontColor=#000000;align=center;" parent="1" vertex="1">
          <mxGeometry x="340" y="250" width="120" height="60" as="geometry" />
        </mxCell>
        <mxCell id="6" value="calculator" style="rounded=0;whiteSpace=wrap;html=1;shadow=0;labelBackgroundColor=none;strokeColor=#080808;strokeWidth=2;fillColor=#ffffff;fontSize=22;fontColor=#000000;align=center;" parent="1" vertex="1">
          <mxGeometry x="470" y="250" width="120" height="60" as="geometry" />
        </mxCell>
        <mxCell id="8" value="uploader" style="rounded=0;whiteSpace=wrap;html=1;shadow=0;labelBackgroundColor=none;strokeColor=#080808;strokeWidth=2;fillColor=#ffffff;fontSize=22;fontColor=#000000;align=center;" parent="1" vertex="1">
          <mxGeometry x="600" y="250" width="120" height="60" as="geometry" />
        </mxCell>
        <mxCell id="11" value="套件" style="text;html=1;strokeColor=none;fillColor=none;align=center;verticalAlign=middle;whiteSpace=wrap;rounded=0;shadow=0;labelBackgroundColor=none;fontSize=16;fontColor=#000000;fontStyle=2" parent="1" vertex="1">
          <mxGeometry x="480" y="320" width="100" height="20" as="geometry" />
        </mxCell>
        <mxCell id="12" value="套件" style="text;html=1;strokeColor=none;fillColor=none;align=center;verticalAlign=middle;whiteSpace=wrap;rounded=0;shadow=0;labelBackgroundColor=none;fontSize=16;fontColor=#000000;fontStyle=2" parent="1" vertex="1">
          <mxGeometry x="610" y="320" width="100" height="20" as="geometry" />
        </mxCell>
        <mxCell id="13" value="import package的邏輯" style="rounded=0;whiteSpace=wrap;html=1;shadow=0;labelBackgroundColor=none;strokeColor=#b85450;strokeWidth=2;fillColor=#f8cecc;fontSize=12;fontColor=#000000;align=center;" parent="1" vertex="1">
          <mxGeometry x="170" y="70" width="200" height="40" as="geometry" />
        </mxCell>
        <mxCell id="W0OKF6G9wj5ZlKhKW6Lr-14" value="官方標準套件" style="text;html=1;strokeColor=none;fillColor=none;align=center;verticalAlign=middle;whiteSpace=wrap;rounded=0;shadow=0;labelBackgroundColor=none;fontSize=16;fontColor=#000000;fontStyle=2" vertex="1" parent="1">
          <mxGeometry x="350" y="320" width="100" height="20" as="geometry" />
        </mxCell>
      </root>
    </mxGraphModel>
  </diagram>
  <diagram name="func格式" id="YF_fGsFogpQu_WIyvbkR">
    <mxGraphModel dx="2074" dy="1267" grid="1" gridSize="10" guides="1" tooltips="1" connect="1" arrows="1" fold="1" page="1" pageScale="1" pageWidth="1100" pageHeight="850" background="#ffffff" math="0" shadow="0">
      <root>
        <mxCell id="0" />
        <mxCell id="1" parent="0" />
        <mxCell id="6" value="" style="rounded=0;whiteSpace=wrap;html=1;shadow=0;labelBackgroundColor=none;strokeColor=#d6b656;strokeWidth=2;fillColor=#fff2cc;fontSize=50;fontColor=#000000;align=left;" parent="1" vertex="1">
          <mxGeometry x="514" y="370" width="40" height="60" as="geometry" />
        </mxCell>
        <mxCell id="5" value="" style="rounded=0;whiteSpace=wrap;html=1;shadow=0;labelBackgroundColor=none;strokeColor=#82b366;strokeWidth=2;fillColor=#d5e8d4;fontSize=50;fontColor=#000000;align=left;" parent="1" vertex="1">
          <mxGeometry x="396" y="370" width="118" height="60" as="geometry" />
        </mxCell>
        <mxCell id="4" value="" style="rounded=0;whiteSpace=wrap;html=1;shadow=0;labelBackgroundColor=none;strokeColor=#6c8ebf;strokeWidth=2;fillColor=#dae8fc;fontSize=50;fontColor=#000000;align=left;" parent="1" vertex="1">
          <mxGeometry x="286" y="370" width="110" height="60" as="geometry" />
        </mxCell>
        <mxCell id="2" value="func main() {&lt;div&gt;&lt;br&gt;&lt;/div&gt;&lt;div&gt;}&lt;/div&gt;" style="text;html=1;strokeColor=none;fillColor=none;align=left;verticalAlign=middle;whiteSpace=wrap;rounded=0;shadow=0;labelBackgroundColor=none;fontSize=50;fontColor=#000000;" parent="1" vertex="1">
          <mxGeometry x="294" y="400" width="440" height="110" as="geometry" />
        </mxCell>
        <mxCell id="7" value="" style="rounded=0;whiteSpace=wrap;html=1;shadow=0;labelBackgroundColor=none;strokeColor=#d79b00;strokeWidth=2;fillColor=#ffe6cc;fontSize=50;fontColor=#000000;align=left;" parent="1" vertex="1">
          <mxGeometry x="335" y="430" width="319" height="60" as="geometry" />
        </mxCell>
        <mxCell id="10" style="edgeStyle=orthogonalEdgeStyle;rounded=0;html=1;exitX=0.5;exitY=1;entryX=0.5;entryY=0;startArrow=none;startFill=0;endArrow=classic;endFill=1;jettySize=auto;orthogonalLoop=1;strokeColor=#000000;strokeWidth=3;fontSize=16;fontColor=#000000;" parent="1" source="9" target="4" edge="1">
          <mxGeometry relative="1" as="geometry" />
        </mxCell>
        <mxCell id="9" value="宣告這是一個函式" style="text;html=1;strokeColor=none;fillColor=none;align=center;verticalAlign=middle;whiteSpace=wrap;rounded=0;shadow=0;labelBackgroundColor=none;fontSize=16;fontColor=#000000;" parent="1" vertex="1">
          <mxGeometry x="190" y="250" width="145" height="60" as="geometry" />
        </mxCell>
        <mxCell id="12" style="edgeStyle=orthogonalEdgeStyle;rounded=0;html=1;exitX=0.5;exitY=1;entryX=0.5;entryY=0;startArrow=none;startFill=0;endArrow=classic;endFill=1;jettySize=auto;orthogonalLoop=1;strokeColor=#000000;strokeWidth=3;fontSize=16;fontColor=#000000;" parent="1" source="11" target="5" edge="1">
          <mxGeometry relative="1" as="geometry" />
        </mxCell>
        <mxCell id="11" value="為這個函式命名" style="text;html=1;strokeColor=none;fillColor=none;align=center;verticalAlign=middle;whiteSpace=wrap;rounded=0;shadow=0;labelBackgroundColor=none;fontSize=16;fontColor=#000000;" parent="1" vertex="1">
          <mxGeometry x="395" y="260" width="119" height="60" as="geometry" />
        </mxCell>
        <mxCell id="14" style="edgeStyle=orthogonalEdgeStyle;rounded=0;html=1;exitX=0.25;exitY=1;entryX=0.5;entryY=0;startArrow=none;startFill=0;endArrow=classic;endFill=1;jettySize=auto;orthogonalLoop=1;strokeColor=#000000;strokeWidth=3;fontSize=16;fontColor=#000000;" parent="1" source="13" target="6" edge="1">
          <mxGeometry relative="1" as="geometry" />
        </mxCell>
        <mxCell id="13" value="接收傳進函式的參數" style="text;html=1;strokeColor=none;fillColor=none;align=center;verticalAlign=middle;whiteSpace=wrap;rounded=0;shadow=0;labelBackgroundColor=none;fontSize=16;fontColor=#000000;" parent="1" vertex="1">
          <mxGeometry x="574" y="260" width="176" height="60" as="geometry" />
        </mxCell>
        <mxCell id="17" style="edgeStyle=orthogonalEdgeStyle;rounded=0;html=1;exitX=0;exitY=0.5;entryX=1;entryY=0.5;startArrow=none;startFill=0;endArrow=classic;endFill=1;jettySize=auto;orthogonalLoop=1;strokeColor=#000000;strokeWidth=3;fontSize=16;fontColor=#000000;" parent="1" source="16" target="7" edge="1">
          <mxGeometry relative="1" as="geometry" />
        </mxCell>
        <mxCell id="16" value="程式碼寫在這裡" style="text;html=1;strokeColor=none;fillColor=none;align=center;verticalAlign=middle;whiteSpace=wrap;rounded=0;shadow=0;labelBackgroundColor=none;fontSize=16;fontColor=#000000;" parent="1" vertex="1">
          <mxGeometry x="724" y="432" width="160" height="55" as="geometry" />
        </mxCell>
      </root>
    </mxGraphModel>
  </diagram>
  <diagram name="tarot結構" id="XgIHnvSMWZMEkt9wh5TZ">
    <mxGraphModel dx="2074" dy="1267" grid="1" gridSize="10" guides="1" tooltips="1" connect="1" arrows="1" fold="1" page="1" pageScale="1" pageWidth="1100" pageHeight="850" background="#ffffff" math="0" shadow="0">
      <root>
        <mxCell id="0" />
        <mxCell id="1" parent="0" />
        <mxCell id="2" value="" style="rounded=0;whiteSpace=wrap;html=1;shadow=0;labelBackgroundColor=none;strokeColor=#080808;strokeWidth=2;fillColor=#ffffff;fontSize=22;fontColor=#000000;align=center;" parent="1" vertex="1">
          <mxGeometry x="320" y="205" width="240" height="405" as="geometry" />
        </mxCell>
        <mxCell id="3" value="Tarot" style="text;html=1;strokeColor=none;fillColor=none;align=center;verticalAlign=middle;whiteSpace=wrap;rounded=0;shadow=0;labelBackgroundColor=none;fontSize=32;fontColor=#000000;" parent="1" vertex="1">
          <mxGeometry x="390" y="170" width="100" height="30" as="geometry" />
        </mxCell>
        <mxCell id="14" style="edgeStyle=orthogonalEdgeStyle;rounded=0;html=1;exitX=1;exitY=0.5;startArrow=none;startFill=0;endArrow=classic;endFill=1;jettySize=auto;orthogonalLoop=1;strokeColor=#000000;strokeWidth=3;fontSize=22;fontColor=#000000;" parent="1" source="4" edge="1">
          <mxGeometry relative="1" as="geometry">
            <mxPoint x="600" y="245" as="targetPoint" />
          </mxGeometry>
        </mxCell>
        <mxCell id="4" value="newTarot" style="rounded=0;whiteSpace=wrap;html=1;shadow=0;labelBackgroundColor=none;strokeColor=#080808;strokeWidth=2;fillColor=#ffffff;fontSize=22;fontColor=#000000;align=center;" parent="1" vertex="1">
          <mxGeometry x="345" y="220" width="190" height="50" as="geometry" />
        </mxCell>
        <mxCell id="8" value="print" style="rounded=0;whiteSpace=wrap;html=1;shadow=0;labelBackgroundColor=none;strokeColor=#080808;strokeWidth=2;fillColor=#ffffff;fontSize=22;fontColor=#000000;align=center;" parent="1" vertex="1">
          <mxGeometry x="345" y="284" width="190" height="50" as="geometry" />
        </mxCell>
        <mxCell id="9" value="shuffle" style="rounded=0;whiteSpace=wrap;html=1;shadow=0;labelBackgroundColor=none;strokeColor=#080808;strokeWidth=2;fillColor=#ffffff;fontSize=22;fontColor=#000000;align=center;" parent="1" vertex="1">
          <mxGeometry x="345" y="348" width="190" height="50" as="geometry" />
        </mxCell>
        <mxCell id="10" value="draw" style="rounded=0;whiteSpace=wrap;html=1;shadow=0;labelBackgroundColor=none;strokeColor=#080808;strokeWidth=2;fillColor=#ffffff;fontSize=22;fontColor=#000000;align=center;" parent="1" vertex="1">
          <mxGeometry x="345" y="412" width="190" height="50" as="geometry" />
        </mxCell>
        <mxCell id="11" value="saveToFile" style="rounded=0;whiteSpace=wrap;html=1;shadow=0;labelBackgroundColor=none;strokeColor=#080808;strokeWidth=2;fillColor=#ffffff;fontSize=22;fontColor=#000000;align=center;" parent="1" vertex="1">
          <mxGeometry x="345" y="476" width="190" height="50" as="geometry" />
        </mxCell>
        <mxCell id="13" value="newDeckFromFile" style="rounded=0;whiteSpace=wrap;html=1;shadow=0;labelBackgroundColor=none;strokeColor=#080808;strokeWidth=2;fillColor=#ffffff;fontSize=22;fontColor=#000000;align=center;" parent="1" vertex="1">
          <mxGeometry x="345" y="540" width="190" height="50" as="geometry" />
        </mxCell>
        <mxCell id="15" value="字串陣列，其中包含寶劍、金幣、權杖、聖杯的所有塔羅牌" style="text;html=1;strokeColor=none;fillColor=none;align=left;verticalAlign=middle;whiteSpace=wrap;rounded=0;shadow=0;labelBackgroundColor=none;fontSize=14;fontColor=#000000;" parent="1" vertex="1">
          <mxGeometry x="602" y="218" width="170" height="55" as="geometry" />
        </mxCell>
        <mxCell id="16" style="edgeStyle=orthogonalEdgeStyle;rounded=0;html=1;exitX=1;exitY=0.5;startArrow=none;startFill=0;endArrow=classic;endFill=1;jettySize=auto;orthogonalLoop=1;strokeColor=#000000;strokeWidth=3;fontSize=22;fontColor=#000000;" parent="1" edge="1">
          <mxGeometry relative="1" as="geometry">
            <mxPoint x="600" y="309" as="targetPoint" />
            <mxPoint x="535" y="309" as="sourcePoint" />
          </mxGeometry>
        </mxCell>
        <mxCell id="17" value="將陣列中的元素全部輸出出來" style="text;html=1;strokeColor=none;fillColor=none;align=left;verticalAlign=middle;whiteSpace=wrap;rounded=0;shadow=0;labelBackgroundColor=none;fontSize=14;fontColor=#000000;" parent="1" vertex="1">
          <mxGeometry x="602" y="282" width="170" height="55" as="geometry" />
        </mxCell>
        <mxCell id="18" style="edgeStyle=orthogonalEdgeStyle;rounded=0;html=1;exitX=1;exitY=0.5;startArrow=none;startFill=0;endArrow=classic;endFill=1;jettySize=auto;orthogonalLoop=1;strokeColor=#000000;strokeWidth=3;fontSize=22;fontColor=#000000;" parent="1" edge="1">
          <mxGeometry relative="1" as="geometry">
            <mxPoint x="600" y="373" as="targetPoint" />
            <mxPoint x="535" y="373" as="sourcePoint" />
          </mxGeometry>
        </mxCell>
        <mxCell id="19" value="打亂字串陣列內的元素" style="text;html=1;strokeColor=none;fillColor=none;align=left;verticalAlign=middle;whiteSpace=wrap;rounded=0;shadow=0;labelBackgroundColor=none;fontSize=14;fontColor=#000000;" parent="1" vertex="1">
          <mxGeometry x="602" y="346" width="170" height="55" as="geometry" />
        </mxCell>
        <mxCell id="20" style="edgeStyle=orthogonalEdgeStyle;rounded=0;html=1;exitX=1;exitY=0.5;startArrow=none;startFill=0;endArrow=classic;endFill=1;jettySize=auto;orthogonalLoop=1;strokeColor=#000000;strokeWidth=3;fontSize=22;fontColor=#000000;" parent="1" edge="1">
          <mxGeometry relative="1" as="geometry">
            <mxPoint x="600" y="437" as="targetPoint" />
            <mxPoint x="535" y="437" as="sourcePoint" />
          </mxGeometry>
        </mxCell>
        <mxCell id="21" value="將前四張卡“抽”出來" style="text;html=1;strokeColor=none;fillColor=none;align=left;verticalAlign=middle;whiteSpace=wrap;rounded=0;shadow=0;labelBackgroundColor=none;fontSize=14;fontColor=#000000;" parent="1" vertex="1">
          <mxGeometry x="602" y="410" width="170" height="55" as="geometry" />
        </mxCell>
        <mxCell id="22" style="edgeStyle=orthogonalEdgeStyle;rounded=0;html=1;exitX=1;exitY=0.5;startArrow=none;startFill=0;endArrow=classic;endFill=1;jettySize=auto;orthogonalLoop=1;strokeColor=#000000;strokeWidth=3;fontSize=22;fontColor=#000000;" parent="1" edge="1">
          <mxGeometry relative="1" as="geometry">
            <mxPoint x="600" y="501" as="targetPoint" />
            <mxPoint x="535" y="501" as="sourcePoint" />
          </mxGeometry>
        </mxCell>
        <mxCell id="23" value="將抽出結果存檔" style="text;html=1;strokeColor=none;fillColor=none;align=left;verticalAlign=middle;whiteSpace=wrap;rounded=0;shadow=0;labelBackgroundColor=none;fontSize=14;fontColor=#000000;" parent="1" vertex="1">
          <mxGeometry x="602" y="474" width="170" height="55" as="geometry" />
        </mxCell>
        <mxCell id="24" style="edgeStyle=orthogonalEdgeStyle;rounded=0;html=1;exitX=1;exitY=0.5;startArrow=none;startFill=0;endArrow=classic;endFill=1;jettySize=auto;orthogonalLoop=1;strokeColor=#000000;strokeWidth=3;fontSize=22;fontColor=#000000;" parent="1" edge="1">
          <mxGeometry relative="1" as="geometry">
            <mxPoint x="600" y="565" as="targetPoint" />
            <mxPoint x="535" y="565" as="sourcePoint" />
          </mxGeometry>
        </mxCell>
        <mxCell id="25" value="讀取之前的存檔紀錄" style="text;html=1;strokeColor=none;fillColor=none;align=left;verticalAlign=middle;whiteSpace=wrap;rounded=0;shadow=0;labelBackgroundColor=none;fontSize=14;fontColor=#000000;" parent="1" vertex="1">
          <mxGeometry x="602" y="538" width="170" height="55" as="geometry" />
        </mxCell>
      </root>
    </mxGraphModel>
  </diagram>
</mxfile>
